<?xml version="1.0" encoding="UTF-8"?>
<svg id="Layer_1" xmlns="http://www.w3.org/2000/svg" width="130.185mm" height="59.848mm" version="1.1" viewBox="0 0 369.028 169.647">
  <!-- Generator: Adobe Illustrator 29.3.0, SVG Export Plug-In . SVG Version: 2.1.0 Build 146)  -->
  <polygon points="192.5 64.445 .5 64.445 .5 .5 368.528 .5 368.528 32.5 192.5 32.5 192.5 64.445" fill="#a7a9ac" stroke="#000"/>
  <polygon points="32.528 96.5 368.528 96.5 368.528 128.527 .5 128.527 .5 64.445 32.528 64.445 32.528 96.5" fill="#8fbde2" stroke="#000"/>
  <rect x="152.528" y="64.5" width="216" height="32" fill="#cccc94" stroke="#000"/>
  <rect x=".5" y="128.527" width="368.028" height="32.027" fill="#d1d3d4" stroke="#000"/>
  <rect x="32.528" y="64.5" width="120" height="32" fill="#ffdda3" stroke="#000"/>
  <rect x="280.472" y="32.5" width="88.056" height="32" fill="#d7969f" stroke="#000"/>
  <rect x="192.5" y="32.5" width="88.028" height="32" fill="#a694c3" stroke="#000"/>
  <text transform="translate(336.498 167.7)" font-family="Arial-ItalicMT, Arial" font-size="6" font-style="italic"><tspan x="0" y="0">aaa-063879</tspan></text>
  <text transform="translate(134.935 110.9)" font-family="ArialMT, Arial" font-size="7"><tspan x="0" y="0">CMSIS-CORE and CMSIS-DSP</tspan><tspan x="-108.172" y="8.4">(Device header files: core access functions, intrinsics, peripheral and interrupt definitions, DSP library)</tspan></text>
  <path d="M178.636,18.551" fill="none" stroke="#000" stroke-linecap="square" stroke-width=".5"/>
  <text transform="translate(233.1 82.9)" font-family="ArialMT, Arial" font-size="7"><tspan x="0" y="0">Peripheral drivers</tspan></text>
  <text transform="translate(158.843 18.9)" font-family="ArialMT, Arial" font-size="7"><tspan x="0" y="0">Application code</tspan></text>
  <text transform="translate(146.014 146.954)" font-family="ArialMT, Arial" font-size="7"><tspan x="0" y="0">Microcontroller hardware</tspan></text>
  <text transform="translate(67.24 78.9)" font-family="ArialMT, Arial" font-size="7"><tspan x="0" y="0">Real time kernel</tspan><tspan x="6.038" y="8.4">(FreeRTOS)</tspan></text>
  <text transform="translate(306.542 50.9)" font-family="ArialMT, Arial" font-size="7"><tspan x="0" y="0">Board support</tspan></text>
  <text transform="translate(200.343 42.9)" font-family="ArialMT, Arial" font-size="7"><tspan x="0" y="0">Stacks and middleware</tspan><tspan x=".979" y="8.4">(Connectivity, security,</tspan><tspan x="2.152" y="16.8">DMA, filesystem, etc.)</tspan></text>
</svg>